<svg width="38" height="37" viewBox="0 0 38 37" fill="none" xmlns="http://www.w3.org/2000/svg">
<path fill-rule="evenodd" clip-rule="evenodd" d="M10.8513 8.08972C10.8513 5.95271 11.7002 3.90322 13.2113 2.39213C14.7224 0.881029 16.7719 0.0321045 18.9089 0.0321045C21.0459 0.0321045 23.0954 0.881029 24.6065 2.39213C26.1176 3.90322 26.9666 5.95271 26.9666 8.08972C26.9666 10.2267 26.1176 12.2762 24.6065 13.7873C23.0954 15.2984 21.0459 16.1473 18.9089 16.1473C16.7719 16.1473 14.7224 15.2984 13.2113 13.7873C11.7002 12.2762 10.8513 10.2267 10.8513 8.08972ZM10.8513 20.1761C8.18005 20.1761 5.61819 21.2373 3.72932 23.1262C1.84045 25.015 0.779297 27.5769 0.779297 30.2482C0.779297 31.8509 1.41599 33.388 2.54931 34.5214C3.68264 35.6547 5.21975 36.2914 6.82251 36.2914H30.9954C32.5981 36.2914 34.1352 35.6547 35.2686 34.5214C36.4019 33.388 37.0386 31.8509 37.0386 30.2482C37.0386 27.5769 35.9774 25.015 34.0885 23.1262C32.1997 21.2373 29.6378 20.1761 26.9666 20.1761H10.8513Z" fill="white"/>
</svg>
