<svg width="66" height="26" viewBox="0 0 66 26" fill="none" xmlns="http://www.w3.org/2000/svg">
<rect width="66" height="21" transform="translate(0 5)" fill="white"/>
<path d="M12.536 20.144C11.696 20.144 10.98 19.996 10.388 19.7C9.804 19.396 9.356 18.928 9.044 18.296C8.732 17.664 8.576 16.86 8.576 15.884C8.576 14.444 8.924 13.376 9.62 12.68C10.324 11.976 11.3 11.624 12.548 11.624C13.236 11.624 13.852 11.74 14.396 11.972C14.948 12.204 15.38 12.552 15.692 13.016C16.012 13.472 16.172 14.056 16.172 14.768H14.804C14.804 14.328 14.712 13.96 14.528 13.664C14.344 13.368 14.08 13.144 13.736 12.992C13.4 12.84 13.008 12.764 12.56 12.764C12 12.764 11.524 12.876 11.132 13.1C10.748 13.316 10.456 13.644 10.256 14.084C10.064 14.524 9.968 15.084 9.968 15.764V16.028C9.968 16.708 10.064 17.268 10.256 17.708C10.456 18.148 10.748 18.476 11.132 18.692C11.516 18.9 11.992 19.004 12.56 19.004C13.024 19.004 13.428 18.932 13.772 18.788C14.116 18.636 14.38 18.412 14.564 18.116C14.756 17.82 14.852 17.452 14.852 17.012H16.172C16.172 17.724 16.012 18.312 15.692 18.776C15.38 19.24 14.948 19.584 14.396 19.808C13.852 20.032 13.232 20.144 12.536 20.144ZM21.3993 20.144C20.5513 20.144 19.8153 19.988 19.1913 19.676C18.5753 19.364 18.0993 18.892 17.7633 18.26C17.4353 17.628 17.2713 16.836 17.2713 15.884C17.2713 14.924 17.4353 14.132 17.7633 13.508C18.0993 12.876 18.5753 12.404 19.1913 12.092C19.8153 11.78 20.5513 11.624 21.3993 11.624C22.2633 11.624 23.0033 11.78 23.6193 12.092C24.2353 12.404 24.7073 12.876 25.0353 13.508C25.3713 14.132 25.5393 14.924 25.5393 15.884C25.5393 16.836 25.3713 17.628 25.0353 18.26C24.7073 18.892 24.2353 19.364 23.6193 19.676C23.0033 19.988 22.2633 20.144 21.3993 20.144ZM21.3993 19.004C21.8393 19.004 22.2273 18.944 22.5633 18.824C22.9073 18.704 23.1953 18.52 23.4273 18.272C23.6673 18.024 23.8473 17.712 23.9673 17.336C24.0953 16.96 24.1593 16.524 24.1593 16.028V15.764C24.1593 15.252 24.0953 14.808 23.9673 14.432C23.8473 14.056 23.6673 13.744 23.4273 13.496C23.1953 13.248 22.9073 13.064 22.5633 12.944C22.2273 12.824 21.8393 12.764 21.3993 12.764C20.9673 12.764 20.5793 12.824 20.2353 12.944C19.8993 13.064 19.6113 13.248 19.3713 13.496C19.1393 13.744 18.9633 14.056 18.8433 14.432C18.7233 14.808 18.6633 15.252 18.6633 15.764V16.028C18.6633 16.524 18.7233 16.96 18.8433 17.336C18.9633 17.712 19.1393 18.024 19.3713 18.272C19.6113 18.52 19.8993 18.704 20.2353 18.824C20.5793 18.944 20.9673 19.004 21.3993 19.004ZM27.0892 20V11.768H31.1932C31.7772 11.768 32.2612 11.876 32.6452 12.092C33.0292 12.308 33.3172 12.608 33.5092 12.992C33.7092 13.368 33.8092 13.816 33.8092 14.336C33.8092 14.856 33.7052 15.316 33.4972 15.716C33.2892 16.108 32.9852 16.412 32.5852 16.628C32.1932 16.844 31.7132 16.952 31.1452 16.952H28.4332V20H27.0892ZM28.4332 15.8H31.0852C31.5092 15.8 31.8412 15.672 32.0812 15.416C32.3292 15.16 32.4532 14.804 32.4532 14.348C32.4532 14.044 32.4012 13.788 32.2972 13.58C32.1932 13.364 32.0412 13.2 31.8412 13.088C31.6412 12.976 31.3892 12.92 31.0852 12.92H28.4332V15.8ZM35.0931 20V11.768H36.4371V20H35.0931ZM38.3861 20V11.768H44.7701V12.92H39.7301V15.212H44.2421V16.364H39.7301V18.848H44.8421V20H38.3861ZM46.472 20V11.768H49.652C50.5 11.768 51.224 11.916 51.824 12.212C52.424 12.5 52.884 12.948 53.204 13.556C53.532 14.156 53.696 14.932 53.696 15.884C53.696 16.828 53.532 17.604 53.204 18.212C52.884 18.82 52.424 19.272 51.824 19.568C51.224 19.856 50.5 20 49.652 20H46.472ZM47.816 18.848H49.64C50.064 18.848 50.44 18.792 50.768 18.68C51.104 18.568 51.384 18.396 51.608 18.164C51.84 17.932 52.012 17.64 52.124 17.288C52.244 16.928 52.304 16.504 52.304 16.016V15.764C52.304 15.268 52.244 14.844 52.124 14.492C52.012 14.132 51.84 13.836 51.608 13.604C51.384 13.372 51.104 13.2 50.768 13.088C50.44 12.976 50.064 12.92 49.64 12.92H47.816V18.848ZM55.5733 17.78L55.2373 11.768H56.7013L56.3653 17.78H55.5733ZM55.2973 20V18.608H56.6413V20H55.2973Z" fill="black"/>
<path d="M58 0L62.3301 5.25H53.6699L58 0Z" fill="white"/>
</svg>
