<svg width="71" height="21" viewBox="0 0 71 21" fill="none" xmlns="http://www.w3.org/2000/svg">
<rect width="66" height="21" transform="translate(5.00293)" fill="white"/>
<path d="M17.5389 15.144C16.6989 15.144 15.9829 14.996 15.3909 14.7C14.8069 14.396 14.3589 13.928 14.0469 13.296C13.7349 12.664 13.5789 11.86 13.5789 10.884C13.5789 9.444 13.9269 8.376 14.6229 7.68C15.3269 6.976 16.3029 6.624 17.5509 6.624C18.2389 6.624 18.8549 6.74 19.3989 6.972C19.9509 7.204 20.3829 7.552 20.6949 8.016C21.0149 8.472 21.1749 9.056 21.1749 9.768H19.8069C19.8069 9.328 19.7149 8.96 19.5309 8.664C19.3469 8.368 19.0829 8.144 18.7389 7.992C18.4029 7.84 18.0109 7.764 17.5629 7.764C17.0029 7.764 16.5269 7.876 16.1349 8.1C15.7509 8.316 15.4589 8.644 15.2589 9.084C15.0669 9.524 14.9709 10.084 14.9709 10.764V11.028C14.9709 11.708 15.0669 12.268 15.2589 12.708C15.4589 13.148 15.7509 13.476 16.1349 13.692C16.5189 13.9 16.9949 14.004 17.5629 14.004C18.0269 14.004 18.4309 13.932 18.7749 13.788C19.1189 13.636 19.3829 13.412 19.5669 13.116C19.7589 12.82 19.8549 12.452 19.8549 12.012H21.1749C21.1749 12.724 21.0149 13.312 20.6949 13.776C20.3829 14.24 19.9509 14.584 19.3989 14.808C18.8549 15.032 18.2349 15.144 17.5389 15.144ZM26.4022 15.144C25.5542 15.144 24.8182 14.988 24.1942 14.676C23.5782 14.364 23.1022 13.892 22.7662 13.26C22.4382 12.628 22.2742 11.836 22.2742 10.884C22.2742 9.924 22.4382 9.132 22.7662 8.508C23.1022 7.876 23.5782 7.404 24.1942 7.092C24.8182 6.78 25.5542 6.624 26.4022 6.624C27.2662 6.624 28.0062 6.78 28.6222 7.092C29.2382 7.404 29.7102 7.876 30.0382 8.508C30.3742 9.132 30.5422 9.924 30.5422 10.884C30.5422 11.836 30.3742 12.628 30.0382 13.26C29.7102 13.892 29.2382 14.364 28.6222 14.676C28.0062 14.988 27.2662 15.144 26.4022 15.144ZM26.4022 14.004C26.8422 14.004 27.2302 13.944 27.5662 13.824C27.9102 13.704 28.1982 13.52 28.4302 13.272C28.6702 13.024 28.8502 12.712 28.9702 12.336C29.0982 11.96 29.1622 11.524 29.1622 11.028V10.764C29.1622 10.252 29.0982 9.808 28.9702 9.432C28.8502 9.056 28.6702 8.744 28.4302 8.496C28.1982 8.248 27.9102 8.064 27.5662 7.944C27.2302 7.824 26.8422 7.764 26.4022 7.764C25.9702 7.764 25.5822 7.824 25.2382 7.944C24.9022 8.064 24.6142 8.248 24.3742 8.496C24.1422 8.744 23.9662 9.056 23.8462 9.432C23.7262 9.808 23.6662 10.252 23.6662 10.764V11.028C23.6662 11.524 23.7262 11.96 23.8462 12.336C23.9662 12.712 24.1422 13.024 24.3742 13.272C24.6142 13.52 24.9022 13.704 25.2382 13.824C25.5822 13.944 25.9702 14.004 26.4022 14.004ZM32.0921 15V6.768H36.1961C36.7801 6.768 37.2641 6.876 37.6481 7.092C38.0321 7.308 38.3201 7.608 38.5121 7.992C38.7121 8.368 38.8121 8.816 38.8121 9.336C38.8121 9.856 38.7081 10.316 38.5001 10.716C38.2921 11.108 37.9881 11.412 37.5881 11.628C37.1961 11.844 36.7161 11.952 36.1481 11.952H33.4361V15H32.0921ZM33.4361 10.8H36.0881C36.5121 10.8 36.8441 10.672 37.0841 10.416C37.3321 10.16 37.4561 9.804 37.4561 9.348C37.4561 9.044 37.4041 8.788 37.3001 8.58C37.1961 8.364 37.0441 8.2 36.8441 8.088C36.6441 7.976 36.3921 7.92 36.0881 7.92H33.4361V10.8ZM40.096 15V6.768H41.44V15H40.096ZM43.389 15V6.768H49.773V7.92H44.733V10.212H49.245V11.364H44.733V13.848H49.845V15H43.389ZM51.4749 15V6.768H54.6549C55.5029 6.768 56.2269 6.916 56.8269 7.212C57.4269 7.5 57.8869 7.948 58.2069 8.556C58.5349 9.156 58.6989 9.932 58.6989 10.884C58.6989 11.828 58.5349 12.604 58.2069 13.212C57.8869 13.82 57.4269 14.272 56.8269 14.568C56.2269 14.856 55.5029 15 54.6549 15H51.4749ZM52.8189 13.848H54.6429C55.0669 13.848 55.4429 13.792 55.7709 13.68C56.1069 13.568 56.3869 13.396 56.6109 13.164C56.8429 12.932 57.0149 12.64 57.1269 12.288C57.2469 11.928 57.3069 11.504 57.3069 11.016V10.764C57.3069 10.268 57.2469 9.844 57.1269 9.492C57.0149 9.132 56.8429 8.836 56.6109 8.604C56.3869 8.372 56.1069 8.2 55.7709 8.088C55.4429 7.976 55.0669 7.92 54.6429 7.92H52.8189V13.848ZM60.5763 12.78L60.2403 6.768H61.7043L61.3683 12.78H60.5763ZM60.3003 15V13.608H61.6443V15H60.3003Z" fill="black"/>
<path d="M0 11.33L5.25 6.9999L5.25 15.6602L0 11.33Z" fill="white"/>
</svg>
