<svg width="16" height="16" viewBox="0 0 16 16" fill="none" xmlns="http://www.w3.org/2000/svg">
<path fill-rule="evenodd" clip-rule="evenodd" d="M15.3333 0C15.7015 0 16 0.298477 16 0.666667V11.3333C16 11.7015 15.7015 12 15.3333 12H13.3333V10.6667H14.6667V1.33333H5.33333V2.66667H4V0.666667C4 0.298477 4.29848 0 4.66667 0H15.3333ZM0.666667 4C0.298477 4 0 4.29848 0 4.66667V15.3333C0 15.7015 0.298477 16 0.666667 16H11.3333C11.7015 16 12 15.7015 12 15.3333V4.66667C12 4.29848 11.7015 4 11.3333 4H0.666667ZM1.33333 14.6667V5.33333H10.6667V14.6667H1.33333Z" fill="#0CBFF1"/>
</svg>
