<svg width="157" height="157" viewBox="0 0 157 157" fill="none" xmlns="http://www.w3.org/2000/svg">
<mask id="mask0_3160_1306" style="mask-type:alpha" maskUnits="userSpaceOnUse" x="0" y="0" width="158" height="157">
<path fill-rule="evenodd" clip-rule="evenodd" d="M80.4807 64.6636L59.1507 43.3336C60.4335 40.421 61.2669 37.3083 61.6027 34.1007C62.3095 27.3486 60.7718 20.5517 57.2276 14.7613C53.6833 8.97095 48.33 4.50967 41.9954 2.06751C36.0152 -0.23806 29.4751 -0.622785 23.2813 0.950685C22.7548 1.08443 22.5542 1.7159 22.8924 2.14095L36.6633 19.4465C36.8071 19.6272 36.8616 19.8633 36.8115 20.0888L33.571 34.6711C33.5033 34.9755 33.2576 35.2084 32.95 35.2597L18.3559 37.6921C18.14 37.728 17.919 37.6698 17.7489 37.5321L1.76449 24.5957C1.32599 24.2408 0.66901 24.4669 0.561888 25.0208C-0.646247 31.2672 0.102763 37.7457 2.72285 43.565C5.51003 49.7555 10.2593 54.8551 16.236 58.0753C22.2127 61.2954 29.0839 62.4565 35.7868 61.3791C38.1074 61.0061 40.363 60.372 42.5141 59.4976L57.1515 74.135L58.6784 72.5958C58.9995 72.272 59.4819 72.1692 59.9072 72.3337L60.9709 72.7453C61.8975 73.1039 62.811 72.1955 62.4575 71.2669L62.0784 70.2707C61.9011 69.8049 62.0447 69.2779 62.4339 68.9665L69.5569 63.2673C70.0135 62.902 70.6718 62.9384 71.0852 63.3519L76.4431 68.7102L80.4807 64.6636ZM83.1019 100.085L84.4513 98.733C84.7443 98.4393 84.856 98.0104 84.7434 97.6111L84.2721 95.9395C84.029 95.0775 84.823 94.2818 85.6855 94.5229L87.2514 94.9606C87.706 95.0876 88.192 94.9234 88.4763 94.5465L93.8103 87.4766C94.155 87.0197 94.1104 86.3787 93.7057 85.974L88.774 81.0419L92.8119 76.9948L113.669 97.8518C116.066 96.7955 118.602 96.0418 121.222 95.6208C127.925 94.5434 134.796 95.7045 140.773 98.9246C146.749 102.145 151.499 107.244 154.286 113.435C156.906 119.254 157.655 125.733 156.447 131.979C156.34 132.533 155.683 132.759 155.244 132.404L139.26 119.468C139.09 119.33 138.869 119.272 138.653 119.308L124.059 121.74C123.751 121.791 123.505 122.024 123.438 122.329L120.197 136.911C120.147 137.137 120.201 137.373 120.345 137.553L134.116 154.859C134.454 155.284 134.254 155.915 133.727 156.049C127.534 157.623 120.993 157.238 115.013 154.932C108.679 152.49 103.325 148.029 99.7811 142.239C96.2368 136.448 94.6992 129.651 95.406 122.899C95.7102 119.993 96.423 117.164 97.5085 114.492L83.1019 100.085Z" fill="black"/>
</mask>
<g mask="url(#mask0_3160_1306)">
<rect x="-71.7671" y="-35.8857" width="287.086" height="215.314" fill="white"/>
</g>
<mask id="mask1_3160_1306" style="mask-type:alpha" maskUnits="userSpaceOnUse" x="2" y="12" width="142" height="143">
<path fill-rule="evenodd" clip-rule="evenodd" d="M112.834 34.3549C112.824 34.5426 112.744 34.7198 112.612 34.8529L77.019 70.5261L71.031 64.5516C70.5863 64.108 69.8676 64.1043 69.4183 64.5434L63.9889 69.8503C63.6718 70.1602 63.5617 70.625 63.7059 71.0443L63.9767 71.8315C64.2872 72.7341 63.4241 73.5992 62.5207 73.2907L61.7245 73.0188C61.3093 72.877 60.8496 72.9844 60.5401 73.2954L3.16973 130.96C2.72318 131.409 2.72452 132.134 3.17272 132.581L24.6277 153.988C25.0763 154.436 25.8029 154.435 26.2505 153.986L83.7044 96.4021C84.013 96.0929 84.1192 95.6354 83.9784 95.2219L83.7083 94.4281C83.4019 93.5277 84.2608 92.6668 85.1619 92.9712L85.9563 93.2396C86.3701 93.3793 86.8274 93.2721 87.1359 92.9629L92.4967 87.59C92.9444 87.1413 92.9435 86.4147 92.4949 85.9671L86.7362 80.2214L122.317 44.5605C122.457 44.4201 122.646 44.3396 122.844 44.3359L128.25 44.2365C128.501 44.2318 128.734 44.1043 128.873 43.8952L143.702 21.5959C143.912 21.2808 143.86 20.8598 143.579 20.6056L135.079 12.8956C134.812 12.6529 134.411 12.6305 134.118 12.842L113.486 27.7323C113.298 27.8674 113.182 28.0798 113.169 28.3103L112.834 34.3549Z" fill="black"/>
</mask>
<g mask="url(#mask1_3160_1306)">
<rect x="-71.7678" y="-22.4287" width="287.086" height="215.314" fill="white"/>
</g>
</svg>
