<svg width="14" height="14" viewBox="0 0 14 14" fill="none" xmlns="http://www.w3.org/2000/svg">
<g clip-path="url(#clip0_1635_454)">
<g clip-path="url(#clip1_1635_454)">
<path d="M11.7523 2.51691C10.8782 2.11584 9.94086 1.82034 8.9608 1.6511C8.94296 1.64783 8.92513 1.656 8.91593 1.67232C8.79538 1.88673 8.66185 2.16644 8.56835 2.3863C7.51424 2.22849 6.46554 2.22849 5.43305 2.3863C5.33952 2.16156 5.20114 1.88673 5.08005 1.67232C5.07085 1.65654 5.05303 1.64838 5.03518 1.6511C4.05567 1.8198 3.11833 2.1153 2.24368 2.51691C2.23611 2.52018 2.22962 2.52562 2.22531 2.53269C0.447373 5.1889 -0.0396791 7.77982 0.199252 10.3386C0.200334 10.3511 0.207361 10.3631 0.217091 10.3707C1.39013 11.2322 2.52641 11.7551 3.64159 12.1018C3.65944 12.1072 3.67835 12.1007 3.68971 12.086C3.95351 11.7258 4.18866 11.3459 4.39028 10.9465C4.40218 10.9231 4.39082 10.8953 4.3665 10.8861C3.99351 10.7446 3.63835 10.5721 3.29671 10.3762C3.26969 10.3604 3.26752 10.3217 3.29238 10.3032C3.36428 10.2494 3.43619 10.1933 3.50484 10.1367C3.51726 10.1264 3.53456 10.1242 3.54917 10.1307C5.7936 11.1554 8.22346 11.1554 10.4414 10.1307C10.456 10.1236 10.4733 10.1258 10.4863 10.1362C10.5549 10.1928 10.6268 10.2494 10.6993 10.3032C10.7241 10.3217 10.7225 10.3604 10.6955 10.3762C10.3538 10.5759 9.99869 10.7446 9.62516 10.8855C9.60084 10.8948 9.59002 10.9231 9.60192 10.9465C9.80787 11.3454 10.043 11.7252 10.3019 12.0855C10.3128 12.1007 10.3322 12.1072 10.3501 12.1018C11.4707 11.7551 12.6069 11.2322 13.78 10.3707C13.7902 10.3631 13.7967 10.3517 13.7978 10.3392C14.0838 7.38091 13.3189 4.81123 11.7701 2.53323C11.7663 2.52562 11.7599 2.52018 11.7523 2.51691ZM4.72545 8.78057C4.04972 8.78057 3.49294 8.16021 3.49294 7.39833C3.49294 6.63645 4.03892 6.01608 4.72545 6.01608C5.41736 6.01608 5.96875 6.6419 5.95794 7.39833C5.95794 8.16021 5.41195 8.78057 4.72545 8.78057ZM9.28243 8.78057C8.60673 8.78057 8.04994 8.16021 8.04994 7.39833C8.04994 6.63645 8.59591 6.01608 9.28243 6.01608C9.97437 6.01608 10.5257 6.6419 10.5149 7.39833C10.5149 8.16021 9.97437 8.78057 9.28243 8.78057Z" fill="white"/>
</g>
</g>
<defs>
<clipPath id="clip0_1635_454">
<rect width="13.7143" height="13.7143" fill="white" transform="translate(0.142578 0.142578)"/>
</clipPath>
<clipPath id="clip1_1635_454">
<rect width="13.7143" height="13.7143" fill="white" transform="translate(0.142578 0.142578)"/>
</clipPath>
</defs>
</svg>
